# xmcd CD database file
#
# Track frame offsets:
#	150
#	18362
#	35712
#	56387
#	75042
#	100567
#	116352
#	132782
#	148492
#	161487
#	174122
#	186802
#	200395
#
# Disc length: 2888 seconds
#
# Revision: 0
# Processed by: cddbd v1.5.1PL0 Copyright (c) Steve Scherf et al.
# Submitted via: CDex 1.51
#
DISCID=9a0b460d
DTITLE=Ralph Kellerman - Jigsaw Puzzle
DYEAR=1996
DGENRE=Country Rock
TTITLE0=Line 'Em Up Against The Wall
TTITLE1=High On The Mountain Top
TTITLE2=Sympathy For The Devil
TTITLE3=Darling
TTITLE4=Everybody Knows
TTITLE5=All This Time
TTITLE6=Sixteen Tons
TTITLE7=I'll Be There
TTITLE8=Lovesick Blues
TTITLE9=Goin' Down Slow
TTITLE10=A Long Dusty Road
TTITLE11=I've Just Seen A Face
TTITLE12=Jemima Surrender
EXTD=YEAR: 1996
EXTT0=
EXTT1=
EXTT2=
EXTT3=
EXTT4=
EXTT5=
EXTT6=
EXTT7=
EXTT8=
EXTT9=
EXTT10=
EXTT11=
EXTT12=
PLAYORDER=
